<svg fill="none" height="24" viewBox="0 0 24 24" width="24" xmlns="http://www.w3.org/2000/svg"><path d="m13 22h-3v-3h3zm0-5h-3v-.007c0-1.65 0-3.075.672-4.073.5228-.6626 1.1733-1.2135 1.913-1.62.334-.214.649-.417.914-.628 1.1614-.89894 1.6836-2.39808 1.332-3.82401-.5563-1.32984-1.9717-2.08442-3.3859-1.80503-1.4142.2794-2.43633 1.51555-2.4451 2.95703h-3c0-3.3137 2.68629-6.00002 6-6.00002 2.3053-.0069 4.4134 1.29897 5.434 3.36602.9167 2.10613.5543 4.55043-.934 6.30001-.4525.5015-.9604.95-1.514 1.337-.4844.3341-.9263.726-1.316 1.167-.5507.8345-.7881 1.8371-.67 2.83z" fill="#000"/></svg>